# xmcd
#
# Track frame offsets:
#	150
#	56243
#	98723
#	149115
#	232025
#	243376
#	288284
#	319427
#	324148
#
# Disc length: 4648 seconds
#
# Revision: 1
# Processed by: cddbd v1.5.2PL0 Copyright (c) Steve Scherf et al.
# Submitted via: audiograbber 1.83.01
#
DISCID=88122609
DTITLE=Grateful Dead - 91-08-16 Shoreline Amphitheatre, Mountain View CA
DYEAR=1900
DGENRE=
TTITLE0=Fire On The Mountain
TTITLE1=Truckin
TTITLE2=Drums
TTITLE3=Space
TTITLE4=Playing In The Band Reprise
TTITLE5=Standing On The Mountain
TTITLE6=Good Lovin
TTITLE7=Tuning
TTITLE8=US Blues
EXTD=
EXTT0=
EXTT1=
EXTT2=
EXTT3=
EXTT4=
EXTT5=
EXTT6=
EXTT7=
EXTT8=
PLAYORDER=
